<svg width="615" height="35" viewBox="0 0 615 35" fill="none" xmlns="http://www.w3.org/2000/svg">
<path d="M15.7212 20.2249C11.2589 21.2368 7.01906 17.8176 2.44322 17.4788C1.48105 17.4074 0.269653 17.6482 0.0362073 18.5309C-0.165691 19.2932 0.514166 19.9901 1.14825 20.5013C2.91171 21.9219 4.78559 23.2206 6.75095 24.3812C5.2651 25.9103 3.93066 27.5702 2.77132 29.3326C2.25553 30.1157 1.7918 31.1871 2.42589 31.89C3.1909 32.74 4.64677 32.1515 5.61998 31.5185C8.66266 29.5436 11.7038 27.5687 14.7464 25.5938C15.1077 26.7573 14.5824 28.0353 13.7243 28.9373C12.8663 29.8393 11.7164 30.4396 10.5886 31.0236C13.9704 32.841 17.9263 33.4042 21.7798 33.9347C26.5465 34.5915 31.4125 35.2468 36.154 34.4444C40.8955 33.642 45.5754 31.1128 47.5613 26.9788C45.3309 24.4422 43.9413 21.3572 42.0958 18.5576C40.2503 15.7594 37.7156 13.1025 34.3291 12.2807C30.8573 11.4396 27.2468 12.6789 23.8682 13.8113C20.4911 14.9451 16.7496 15.9883 13.3978 14.7876C12.8868 14.6048 12.3836 14.37 11.8394 14.3329C11.2952 14.2957 10.6801 14.5216 10.4892 15.0046C10.3173 15.4385 10.5334 15.917 10.7826 16.3167C11.9609 18.2128 13.9909 19.6231 16.2639 20.1238" fill="#EBEBEB"/>
<path d="M22.1556 26.1738C22.2219 22.3162 21.8764 18.4437 21.1446 14.6484C20.3638 14.8743 19.4994 15.0511 18.5703 15.1834C19.359 19.9609 20.1839 25.3892 20.5089 30.2157C21.8906 29.4475 22.1304 27.6851 22.1556 26.1738Z" fill="#FAFAFA"/>
<path d="M26.6868 12.9023L24.1426 13.7004C24.7341 18.8553 25.3272 24.0117 25.9187 29.1666C25.9502 29.4445 25.9865 29.7328 26.1395 29.972C26.2925 30.2113 26.5985 30.3881 26.884 30.3123C27.1758 30.2351 27.3304 29.9438 27.4455 29.6793C29.7531 24.3728 29.444 18.0142 26.6868 12.9023Z" fill="#FAFAFA"/>
<path d="M35.0181 12.4767C35.0417 16.5379 34.8478 20.8651 34.4377 24.9085C34.2815 26.4436 34.0859 28.0098 33.3761 29.4007C33.1852 29.7752 32.8808 30.1794 32.4391 30.1824C31.7814 30.1868 31.5479 29.374 31.5164 28.7558C31.2419 23.1313 31.0842 17.6465 31.0605 12.016C32.5843 11.9447 34.1474 12.1141 35.0181 12.4767Z" fill="#FAFAFA"/>
<path d="M38.8736 14.7504C38.779 14.6879 38.5045 22.9412 38.9036 26.5878C38.962 27.1154 39.1544 27.7721 39.7112 27.845C40.3421 27.9267 40.6923 27.1896 40.8264 26.6042C41.5567 23.4137 41.8516 22.2041 42.3658 18.975C42.4368 18.9215 39.9998 15.4904 38.8736 14.7504Z" fill="#FAFAFA"/>
<path d="M43.8888 25.5048C43.8698 25.7872 43.6128 26.0012 43.3146 25.9833C43.0165 25.9655 42.7878 25.7233 42.8068 25.4424C42.8257 25.1616 43.0828 24.9461 43.3809 24.9639C43.679 24.9803 43.9077 25.2225 43.8888 25.5048Z" fill="#E0E0E0"/>
<path d="M598.843 8.22485C603.305 9.23682 607.545 5.81753 612.121 5.48021C613.083 5.40888 614.295 5.64961 614.528 6.53081C614.73 7.29313 614.05 7.99007 613.416 8.50125C611.653 9.92187 609.779 11.2206 607.813 12.3812C609.299 13.9103 610.634 15.5702 611.792 17.3326C612.307 18.1157 612.771 19.1856 612.137 19.89C611.372 20.74 609.916 20.1515 608.941 19.5185C605.899 17.5436 602.858 15.5687 599.815 13.5938C599.454 14.7573 599.979 16.0353 600.837 16.9373C601.695 17.8393 602.845 18.4396 603.973 19.0236C600.591 20.841 596.635 21.4042 592.782 21.9347C588.015 22.5915 583.149 23.2468 578.407 22.4444C573.666 21.6419 568.986 19.1128 567 14.9787C569.23 12.4421 570.62 9.35719 572.465 6.55757C574.311 3.75943 576.846 1.10246 580.232 0.280703C583.704 -0.560373 587.314 0.67895 590.692 1.81128C594.069 2.9451 597.81 3.98827 601.162 2.78758C601.673 2.6048 602.176 2.36853 602.72 2.33286C603.264 2.29571 603.88 2.52159 604.07 3.00454C604.242 3.43845 604.026 3.91694 603.777 4.31667C602.599 6.2143 600.569 7.62303 598.296 8.12381" fill="#EBEBEB"/>
<path d="M592.409 14.1739C592.343 10.3162 592.689 6.44368 593.42 2.64844C594.201 2.87431 595.066 3.05114 595.995 3.1834C595.206 7.96089 594.381 13.3893 594.056 18.2158C592.674 17.4475 592.435 15.6851 592.409 14.1739Z" fill="#FAFAFA"/>
<path d="M587.878 0.902344L590.422 1.70032C589.829 6.85525 589.238 12.0117 588.646 17.1666C588.614 17.4445 588.578 17.7328 588.425 17.972C588.272 18.2113 587.966 18.3881 587.681 18.3123C587.389 18.235 587.234 17.9438 587.119 17.6793C584.812 12.3728 585.121 6.01418 587.878 0.902344Z" fill="#FAFAFA"/>
<path d="M579.548 0.476665C579.524 4.5379 579.718 8.86513 580.128 12.9085C580.284 14.4436 580.482 16.0098 581.19 17.4007C581.381 17.7752 581.685 18.1794 582.127 18.1824C582.785 18.1868 583.018 17.374 583.05 16.7558C583.324 11.1313 583.482 5.64646 583.505 0.016009C581.98 -0.055319 580.417 0.114081 579.548 0.476665Z" fill="#FAFAFA"/>
<path d="M575.691 2.75035C575.786 2.68794 576.061 10.9412 575.661 14.5878C575.603 15.1154 575.411 15.7722 574.854 15.845C574.223 15.9267 573.873 15.1897 573.739 14.6042C573.008 11.4137 572.713 10.2026 572.201 6.97505C572.128 6.92156 574.565 3.48889 575.691 2.75035Z" fill="#FAFAFA"/>
<path d="M570.675 13.5048C570.694 13.7857 570.951 14.0011 571.249 13.9833C571.547 13.9655 571.776 13.7233 571.757 13.4424C571.738 13.1616 571.481 12.9461 571.183 12.9639C570.885 12.9803 570.657 13.2225 570.675 13.5048Z" fill="#E0E0E0"/>
</svg>
