<svg width="44" height="44" viewBox="0 0 44 44" fill="none" xmlns="http://www.w3.org/2000/svg">
<path d="M37.9676 6.69928C37.9676 6.69928 41.5288 5.31053 41.2309 8.68295C41.1328 10.0717 40.2427 14.9328 39.5497 20.1899L37.1756 35.764C37.1756 35.764 36.9776 38.0456 35.1965 38.4425C33.4163 38.8385 30.7452 37.0538 30.2502 36.6569C29.8542 36.3589 22.8307 31.8948 20.3575 29.7131C19.6645 29.1173 18.8725 27.9275 20.4565 26.5387L30.8432 16.6185C32.0303 15.4287 33.2174 12.6512 28.2711 16.0236L14.4202 25.4469C14.4202 25.4469 12.8372 26.4397 9.8699 25.5469L3.43857 23.5623C3.43857 23.5623 1.0644 22.0745 5.12065 20.5868C15.0142 15.9246 27.183 11.1634 37.9657 6.69928H37.9676Z" fill="#1C7A9C"/>
</svg>
