<svg width="45" height="36" viewBox="0 0 45 36" fill="none" xmlns="http://www.w3.org/2000/svg">
<g clip-path="url(#clip0_1040_376)">
<path d="M38.1191 3.00247C35.1682 1.58142 32.0462 0.571694 28.8359 0C28.436 0.74406 27.9688 1.74482 27.6467 2.54098C24.1854 2.00533 20.7559 2.00533 17.3582 2.54098C17.0362 1.745 16.5584 0.74406 16.1549 0C12.9414 0.571957 9.8168 1.58425 6.86443 3.00989C0.989428 12.1472 -0.603242 21.0573 0.193005 29.8413C4.08969 32.8362 7.86598 34.6555 11.5786 35.846C12.5013 34.5401 13.317 33.1575 14.0171 31.7126C12.6841 31.1903 11.399 30.5466 10.1772 29.7892C10.4987 29.5439 10.8127 29.2883 11.1186 29.0227C18.5225 32.5869 26.5672 32.5869 33.8829 29.0227C34.1901 29.2865 34.504 29.5421 34.8241 29.7892C33.6003 30.5486 32.3129 31.1935 30.9772 31.7164C31.6813 33.1672 32.4955 34.5511 33.4157 35.8497C37.1318 34.6593 40.9116 32.84 44.8083 29.8413C45.7427 19.6585 43.2123 10.8302 38.1191 3.00247ZM15.0259 24.4393C12.8032 24.4393 10.9805 22.3037 10.9805 19.7032C10.9805 17.1027 12.7644 14.9635 15.0259 14.9635C17.2875 14.9635 19.1101 17.0989 19.0713 19.7032C19.0748 22.3037 17.2875 24.4393 15.0259 24.4393ZM29.9755 24.4393C27.7528 24.4393 25.9302 22.3037 25.9302 19.7032C25.9302 17.1027 27.714 14.9635 29.9755 14.9635C32.2371 14.9635 34.0597 17.0989 34.0208 19.7032C34.0208 22.3037 32.2371 24.4393 29.9755 24.4393Z" fill="#1C7A9C"/>
</g>
<defs>
<clipPath id="clip0_1040_376">
<rect width="45" height="36" fill="white"/>
</clipPath>
</defs>
</svg>
