<svg width="38" height="37" viewBox="0 0 38 37" fill="none" xmlns="http://www.w3.org/2000/svg">
<path d="M35.5618 9.24935C34.3426 9.78893 33.0285 10.1435 31.6668 10.3131C33.0601 9.49602 34.1368 8.20102 34.6435 6.64393C33.3293 7.41477 31.8726 7.95435 30.3368 8.26268C29.086 6.93685 27.3285 6.16602 25.3335 6.16602C21.6126 6.16602 18.5726 9.12602 18.5726 12.7798C18.5726 13.3039 18.636 13.8127 18.7468 14.2906C13.1101 14.0131 8.09098 11.3768 4.75014 7.38393C4.16431 8.35518 3.83181 9.49602 3.83181 10.6985C3.83181 12.9956 5.01931 15.0306 6.85598 16.1868C5.73181 16.1868 4.68681 15.8785 3.76848 15.416V15.4623C3.76848 18.6689 6.11181 21.3514 9.21514 21.9527C8.21879 22.2182 7.17279 22.2551 6.15931 22.0606C6.58935 23.3748 7.43158 24.5248 8.56759 25.3489C9.7036 26.1729 11.0763 26.6296 12.4926 26.6548C10.0917 28.5054 7.11564 29.5058 4.05348 29.4914C3.51514 29.4914 2.97681 29.4606 2.43848 29.3989C5.44681 31.2798 9.02514 32.3743 12.8568 32.3743C25.3335 32.3743 32.1893 22.2918 32.1893 13.5506C32.1893 13.2577 32.1893 12.9802 32.1735 12.6873C33.5035 11.7623 34.6435 10.5906 35.5618 9.24935Z" fill="#1C7A9C"/>
</svg>
