<svg width="36" height="38" viewBox="0 0 36 38" fill="none" xmlns="http://www.w3.org/2000/svg">
<path fill-rule="evenodd" clip-rule="evenodd" d="M4.79941 2.5332C4.16289 2.5332 3.55245 2.80011 3.10236 3.2752C2.65227 3.75029 2.39941 4.39465 2.39941 5.06654V32.9332C2.39941 33.6051 2.65227 34.2494 3.10236 34.7245C3.55245 35.1996 4.16289 35.4665 4.79941 35.4665H31.1994C31.8359 35.4665 32.4464 35.1996 32.8965 34.7245C33.3466 34.2494 33.5994 33.6051 33.5994 32.9332V5.06654C33.5994 4.39465 33.3466 3.75029 32.8965 3.2752C32.4464 2.80011 31.8359 2.5332 31.1994 2.5332H4.79941ZM7.31941 15.1999H11.8794V30.3999H7.31941V15.1999ZM12.1794 10.1459C12.1794 10.8681 11.9076 11.5608 11.4237 12.0716C10.9399 12.5823 10.2837 12.8692 9.59941 12.8692C8.91516 12.8692 8.25892 12.5823 7.77508 12.0716C7.29123 11.5608 7.01941 10.8681 7.01941 10.1459C7.01941 9.4236 7.29123 8.73091 7.77508 8.22018C8.25892 7.70946 8.91516 7.42254 9.59941 7.42254C10.2837 7.42254 10.9399 7.70946 11.4237 8.22018C11.9076 8.73091 12.1794 9.4236 12.1794 10.1459ZM28.7994 21.1709C28.7994 16.5983 25.9986 14.8199 23.217 14.8199C22.3079 14.7733 21.4028 14.9748 20.589 15.4051C19.9722 15.7344 19.3266 16.4792 18.8274 17.7813H18.7002V15.1999H14.3994V30.4125H18.9738V22.3185C18.909 21.4901 19.1586 20.4185 19.6722 19.7827C20.1882 19.1443 20.9202 18.9923 21.4794 18.9163H21.6546C23.109 18.9163 24.189 19.8663 24.189 22.2603V30.41H28.7634L28.7994 21.1709Z" fill="#1C7A9C"/>
</svg>
