<svg width="39" height="39" viewBox="0 0 39 39" fill="none" xmlns="http://www.w3.org/2000/svg">
<g clip-path="url(#clip0_1040_371)">
<path d="M19.5 12.999C17.7761 12.999 16.1228 13.6838 14.9038 14.9028C13.6848 16.1218 13 17.7751 13 19.499C13 21.2229 13.6848 22.8762 14.9038 24.0952C16.1228 25.3142 17.7761 25.999 19.5 25.999C21.2239 25.999 22.8772 25.3142 24.0962 24.0952C25.3152 22.8762 26 21.2229 26 19.499C26 17.7751 25.3152 16.1218 24.0962 14.9028C22.8772 13.6838 21.2239 12.999 19.5 12.999Z" fill="#1C7A9C"/>
<path fill-rule="evenodd" clip-rule="evenodd" d="M11.7 0C8.59697 0 5.62103 1.23268 3.42685 3.42685C1.23268 5.62103 0 8.59697 0 11.7L0 27.3C0 30.403 1.23268 33.379 3.42685 35.5731C5.62103 37.7673 8.59697 39 11.7 39H27.3C30.403 39 33.379 37.7673 35.5731 35.5731C37.7673 33.379 39 30.403 39 27.3V11.7C39 8.59697 37.7673 5.62103 35.5731 3.42685C33.379 1.23268 30.403 0 27.3 0L11.7 0ZM10.4 19.5C10.4 17.0865 11.3587 14.7719 13.0653 13.0653C14.7719 11.3587 17.0865 10.4 19.5 10.4C21.9135 10.4 24.2281 11.3587 25.9347 13.0653C27.6413 14.7719 28.6 17.0865 28.6 19.5C28.6 21.9135 27.6413 24.2281 25.9347 25.9347C24.2281 27.6413 21.9135 28.6 19.5 28.6C17.0865 28.6 14.7719 27.6413 13.0653 25.9347C11.3587 24.2281 10.4 21.9135 10.4 19.5ZM28.6 10.4H31.2V7.8H28.6V10.4Z" fill="#1C7A9C"/>
</g>
<defs>
<clipPath id="clip0_1040_371">
<rect width="39" height="39" fill="white"/>
</clipPath>
</defs>
</svg>
